<svg width="48" height="48" xmlns="http://www.w3.org/2000/svg">
 <!-- Created with Method Draw - http://github.com/duopixel/Method-Draw/ -->
 <g>
  <title>background</title>
  <rect fill="none" id="canvas_background" height="50" width="50" y="-1" x="-1"/>
  <g display="none" overflow="visible" y="0" x="0" height="100%" width="100%" id="canvasGrid">
   <rect fill="url(#gridpattern)" stroke-width="0" y="0" x="0" height="100%" width="100%"/>
  </g>
 </g>
 <g>
  <title>Layer 1</title>
  <path stroke="#000000" id="svg_3" d="m203.507582,97.787082c-22.918189,0 -41.498411,18.580224 -41.498411,41.498417c0,22.923725 41.498411,100.265708 41.498411,100.265708s41.498411,-77.341982 41.498411,-100.265708c0,-22.918192 -18.574689,-41.498417 -41.498411,-41.498417zm0,61.329127c-10.950047,0 -19.830707,-8.875128 -19.830707,-19.83071s8.88066,-19.83071 19.830707,-19.83071s19.830707,8.880661 19.830707,19.83071s-8.88066,19.83071 -19.830707,19.83071z" stroke-width="1.5" fill="#ffdb39"/>
  <path stroke="#000000" id="svg_4" d="m24.445281,2.379936c-6.999361,0 -12.673879,5.674518 -12.673879,12.673879c0,7.001051 12.673879,30.621783 12.673879,30.621783s12.673879,-23.620732 12.673879,-30.621783c0,-6.999361 -5.672828,-12.673879 -12.673879,-12.673879zm0,18.730304c-3.344214,0 -6.056425,-2.71052 -6.056425,-6.056425s2.71221,-6.056425 6.056425,-6.056425s6.056425,2.71221 6.056425,6.056425s-2.71221,6.056425 -6.056425,6.056425z" stroke-width="0.6" fill="#ffdb39"/>
 </g>
</svg>